<svg width="64" height="65" fill="none" xmlns="http://www.w3.org/2000/svg"><g clip-path="url('#clip0_945_199')" fill="#EDF3FF"><path d="M52.53 48.8C58.854 48.8 64 43.654 64 37.33c0-4.28-2.422-8.204-6.151-10.164a11.46 11.46 0 0 0 1.04-4.78c0-6.324-5.145-11.47-11.47-11.47-2.772 0-5.378.98-7.419 2.716v-5.99c.57-.116 1-.62 1-1.225v-5c0-.69-.56-1.25-1.25-1.25H1.25C.56.167 0 .727 0 1.417v5c0 .604.43 1.109 1 1.225v55.275c0 .69.56 1.25 1.25 1.25h48.996c.37 0 .72-.164.958-.448a5.122 5.122 0 0 0 1.193-3.282 5.12 5.12 0 0 0-4.728-5.097v-7.208c1.233.44 2.54.668 3.86.668Zm-5.11-35.383c4.946 0 8.97 4.024 8.97 8.97a8.95 8.95 0 0 1-1.336 4.712 1.25 1.25 0 0 0 .624 1.828A9.014 9.014 0 0 1 61.5 37.33c0 4.947-4.024 8.97-8.97 8.97-1.34 0-2.661-.3-3.86-.871v-4.243l5.673-5.675a1.25 1.25 0 0 0-1.767-1.768l-3.907 3.907V25.709a1.25 1.25 0 0 0-2.5 0v5.94l-1.034-1.034a1.251 1.251 0 0 0-1.768 1.768l2.802 2.802V45.428a8.989 8.989 0 0 1-6.169.571V17.344a8.925 8.925 0 0 1 7.42-3.927Zm-1.25 40.819a6.832 6.832 0 0 0-6.17-2.17v-3.501a11.494 11.494 0 0 0 6.17-.433v6.104ZM3.5 7.666h11.334a1.25 1.25 0 0 0 0-2.5H2.5v-2.5h36v2.5H26.083a1.25 1.25 0 0 0 0 2.5H37.5v45.33a6.846 6.846 0 0 0-2.31 2.356 4.832 4.832 0 0 0-.19.025v-6.21c0-.69-.56-1.25-1.25-1.25h-5.5c-.69 0-1.25.56-1.25 1.25v7c0 .69.56 1.25 1.25 1.25h3.363a5.086 5.086 0 0 0-.84 4.25H3.5v-54Zm29 47.25h-3v-4.5h3v4.5Zm18.397 5.521c0 .43-.107.854-.308 1.23H33.43a2.616 2.616 0 0 1 2.461-3.838 1.25 1.25 0 0 0 1.219-.747 4.345 4.345 0 0 1 3.98-2.603 4.335 4.335 0 0 1 4.122 2.979 1.251 1.251 0 0 0 1.798.697 2.616 2.616 0 0 1 3.888 2.282Z"/><path d="M12.75 47.917h-5.5c-.69 0-1.25.56-1.25 1.25v7c0 .69.56 1.25 1.25 1.25h5.5c.69 0 1.25-.56 1.25-1.25v-7c0-.69-.56-1.25-1.25-1.25Zm-1.25 7h-3v-4.5h3v4.5ZM23.25 47.917h-5.5c-.69 0-1.25.56-1.25 1.25v7c0 .69.56 1.25 1.25 1.25h5.5c.69 0 1.25-.56 1.25-1.25v-7c0-.69-.56-1.25-1.25-1.25Zm-1.25 7h-3v-4.5h3v4.5ZM12.75 35.917h-5.5c-.69 0-1.25.56-1.25 1.25v7c0 .69.56 1.25 1.25 1.25h5.5c.69 0 1.25-.56 1.25-1.25v-7c0-.69-.56-1.25-1.25-1.25Zm-1.25 7h-3v-4.5h3v4.5ZM23.25 35.917h-5.5c-.69 0-1.25.56-1.25 1.25v7c0 .69.56 1.25 1.25 1.25h5.5c.69 0 1.25-.56 1.25-1.25v-7c0-.69-.56-1.25-1.25-1.25Zm-1.25 7h-3v-4.5h3v4.5ZM28.25 45.417h5.5c.69 0 1.25-.56 1.25-1.25v-7c0-.69-.56-1.25-1.25-1.25h-5.5c-.69 0-1.25.56-1.25 1.25v7c0 .69.56 1.25 1.25 1.25Zm1.25-7h3v4.5h-3v-4.5ZM12.75 23.917h-5.5c-.69 0-1.25.56-1.25 1.25v7c0 .69.56 1.25 1.25 1.25h5.5c.69 0 1.25-.56 1.25-1.25v-7c0-.69-.56-1.25-1.25-1.25Zm-1.25 7h-3v-4.5h3v4.5ZM23.25 23.917h-5.5c-.69 0-1.25.56-1.25 1.25v7c0 .69.56 1.25 1.25 1.25h5.5c.69 0 1.25-.56 1.25-1.25v-7c0-.69-.56-1.25-1.25-1.25Zm-1.25 7h-3v-4.5h3v4.5ZM28.25 33.417h5.5c.69 0 1.25-.56 1.25-1.25v-7c0-.69-.56-1.25-1.25-1.25h-5.5c-.69 0-1.25.56-1.25 1.25v7c0 .69.56 1.25 1.25 1.25Zm1.25-7h3v4.5h-3v-4.5ZM12.75 11.917h-5.5c-.69 0-1.25.56-1.25 1.25v7c0 .69.56 1.25 1.25 1.25h5.5c.69 0 1.25-.56 1.25-1.25v-7c0-.69-.56-1.25-1.25-1.25Zm-1.25 7h-3v-4.5h3v4.5ZM23.25 11.917h-5.5c-.69 0-1.25.56-1.25 1.25v7c0 .69.56 1.25 1.25 1.25h5.5c.69 0 1.25-.56 1.25-1.25v-7c0-.69-.56-1.25-1.25-1.25Zm-1.25 7h-3v-4.5h3v4.5ZM28.25 21.417h5.5c.69 0 1.25-.56 1.25-1.25v-7c0-.69-.56-1.25-1.25-1.25h-5.5c-.69 0-1.25.56-1.25 1.25v7c0 .69.56 1.25 1.25 1.25Zm1.25-7h3v4.5h-3v-4.5ZM20.459 7.667c.329 0 .65-.134.883-.367a1.26 1.26 0 0 0 .367-.883c0-.329-.134-.652-.367-.884a1.259 1.259 0 0 0-.883-.366 1.254 1.254 0 0 0-.884 2.134c.233.232.553.366.884.366Z"/></g><defs><clipPath id="clip0_945_199"><path fill="#fff" transform="translate(0 .167)" d="M0 0h64v64H0z"/></clipPath></defs></svg>