<svg width="65" height="65" fill="none" xmlns="http://www.w3.org/2000/svg"><path d="M14.406 23.698a3.942 3.942 0 0 0-3.937 3.937 3.942 3.942 0 0 0 3.938 3.938 3.942 3.942 0 0 0 3.937-3.938 3.942 3.942 0 0 0-3.938-3.937Zm0 6a2.065 2.065 0 0 1-2.062-2.063c0-1.137.925-2.062 2.063-2.062 1.137 0 2.062.925 2.062 2.062a2.065 2.065 0 0 1-2.063 2.063ZM12.966 13.8h31.5a1.31 1.31 0 0 0 1.296-1.518 4.38 4.38 0 0 0-4.346-3.698c-.291 0-.579.028-.86.084a5.035 5.035 0 0 0-4.557-2.879c-.457 0-.907.06-1.34.18-.376-3.262-3.154-5.802-6.514-5.802-2.912 0-5.453 1.943-6.277 4.659a5.545 5.545 0 0 0-.732-.049 5.525 5.525 0 0 0-5.27 3.81 4.38 4.38 0 0 0-4.196 3.695 1.31 1.31 0 0 0 1.296 1.52Zm3.05-3.341c.135 0 .275.012.417.036a.94.94 0 0 0 1.08-.772 3.659 3.659 0 0 1 3.623-3.07c.39 0 .777.061 1.15.184a.938.938 0 0 0 1.221-.761 4.7 4.7 0 0 1 4.638-4.034 4.69 4.69 0 0 1 4.648 5.26.937.937 0 0 0 1.452.892 3.145 3.145 0 0 1 1.754-.53c1.456 0 2.72.986 3.073 2.396a.937.937 0 0 0 1.298.626c.33-.15.683-.227 1.047-.227 1.013 0 1.895.588 2.297 1.467H13.719a2.514 2.514 0 0 1 2.297-1.467Z" fill="#EDF3FF"/><path d="M61.73 58.292h-.636v-5.188a.937.937 0 0 0-.938-.937h-8.428v-2.309c2.516-.315 4.74-1.616 6.353-3.745 1.97-2.602 3.013-6.385 3.013-10.941 0-4.29-.911-8.933-2.5-12.736a.937.937 0 1 0-1.73.723c1.496 3.583 2.355 7.961 2.355 12.013 0 4.144-.91 7.536-2.633 9.809-1.267 1.673-2.93 2.688-4.858 2.985V37.224h.987c.466 0 .904-.181 1.233-.51l1.134-1.134a.937.937 0 0 0-1.326-1.326L52.66 35.35h-.932v-8.286a.937.937 0 1 0-1.875 0v1.469h-.32l-1.148-1.147a.937.937 0 1 0-1.326 1.326l1.173 1.173c.338.337.786.523 1.263.523h.358v9.308H47.98a.52.52 0 0 1-.444-.25l-1.254-2.086a.937.937 0 1 0-1.607.966l1.255 2.086a2.404 2.404 0 0 0 2.05 1.16h1.873v6.437c-2.159-.177-4.017-1.22-5.402-3.048-1.722-2.273-2.633-5.665-2.633-9.81 0-4.379 1.023-9.192 2.736-12.874 1.715-3.687 3.89-5.802 5.965-5.802 1.848 0 3.395 1.633 4.367 3.003a.937.937 0 1 0 1.53-1.085c-1.761-2.481-3.8-3.793-5.897-3.793-6.053 0-10.575 10.85-10.575 20.552 0 4.556 1.041 8.34 3.013 10.941 1.728 2.28 4.157 3.612 6.896 3.798v2.256H35.167v-5.219l.14.082a2.812 2.812 0 1 0 2.845-4.852L35.4 40.564v-5.585a.937.937 0 0 0-.938-.937h-.894v-2.47h.944a.937.937 0 1 0 0-1.874H23.843v-3.556a2.805 2.805 0 0 0 2.753-1.5 2.816 2.816 0 0 0-1.194-3.793l-9.696-5.052a2.813 2.813 0 0 0-2.599 0l-2.367 1.234a.937.937 0 0 0 .866 1.663l2.367-1.234a.938.938 0 0 1 .867 0l9.696 5.052a.938.938 0 0 1-.867 1.662l-.305-.159-.037-.019-8.487-4.422a.938.938 0 0 0-.867 0l-8.481 4.419-.047.024-.301.157a.939.939 0 0 1-.867-1.663l3.45-1.796a.937.937 0 0 0-.867-1.663l-3.45 1.797a2.816 2.816 0 0 0-1.194 3.793 2.817 2.817 0 0 0 2.753 1.5v14.329l-2.911 1.707c-.648.38-1.11.99-1.3 1.717a2.794 2.794 0 0 0 .296 2.132 2.815 2.815 0 0 0 3.849 1.003l.14-.082v11.344H3.605a2.94 2.94 0 0 0-2.937 2.937 2.94 2.94 0 0 0 2.937 2.938H39.72a.937.937 0 1 0 0-1.875H3.605a1.064 1.064 0 0 1 0-2.125H61.73c.586 0 1.063.476 1.063 1.062 0 .586-.477 1.063-1.063 1.063H44.046a.937.937 0 1 0 0 1.875h17.683a2.94 2.94 0 0 0 2.938-2.938 2.94 2.94 0 0 0-2.938-2.937ZM27.475 35.917h6.049v3.547l-6.049-3.547Zm4.217-1.875h-3.177v-2.47h3.177v2.47Zm-5.052-2.47v2.47h-2.31l-.048.002-.44-.258v-2.213h2.799Zm-19.797-6.17 7.562-3.939 7.563 3.94v7.284l-.441-.259a2.816 2.816 0 0 0-2.846 0L6.844 39.371V25.403Zm-2.89 20.01a.939.939 0 0 1-.948-1.617l16.624-9.75a.937.937 0 0 1 .949 0l16.625 9.75c.216.127.37.33.433.572a.931.931 0 0 1-.1.711.942.942 0 0 1-1.282.334L20.58 36.22a.936.936 0 0 0-.948 0L3.955 45.413Zm2.963.437 13.188-7.734 13.187 7.733v12.444h-13.75V47.604a1.44 1.44 0 0 0-1.437-1.437h-6.5a1.44 1.44 0 0 0-1.438 1.437v10.688h-3.25V45.848Zm5.125 12.443v-10.25h5.625v10.25h-5.625Zm23.125 0v-4.25h24.052v4.25H35.167Z" fill="#EDF3FF"/><path d="M22.728 54.104h6.5a1.44 1.44 0 0 0 1.437-1.437v-5.063a1.44 1.44 0 0 0-1.437-1.437h-6.5a1.44 1.44 0 0 0-1.438 1.437v5.063a1.44 1.44 0 0 0 1.438 1.437Zm6.063-1.875h-1.875v-4.187h1.875v4.187Zm-5.625-4.187h1.875v4.187h-1.875v-4.187Z" fill="#EDF3FF"/></svg>