<svg width="32" height="33" fill="none" xmlns="http://www.w3.org/2000/svg"><g clip-path="url('#clip0_945_276')"><path d="M28.25.167H3.75A3.754 3.754 0 0 0 0 3.917v24.5a3.754 3.754 0 0 0 3.75 3.75h24.5a3.754 3.754 0 0 0 3.75-3.75v-24.5a3.754 3.754 0 0 0-3.75-3.75Zm1.25 28.25c0 .689-.56 1.25-1.25 1.25h-7.375V20.54h4.002l.466-3.875h-4.468V12.48c0-1.069.806-1.875 1.875-1.875h2.813V6.979c-.74-.104-2.169-.25-2.813-.25-1.458 0-2.919.615-4.009 1.687C17.618 9.521 17 10.967 17 12.49v4.176h-4.063v3.875H17v9.125H3.75c-.69 0-1.25-.56-1.25-1.25v-24.5c0-.689.56-1.25 1.25-1.25h24.5c.69 0 1.25.561 1.25 1.25v24.5Z" fill="#fff"/></g><defs><clipPath id="clip0_945_276"><path fill="#fff" transform="translate(0 .167)" d="M0 0h32v32H0z"/></clipPath></defs></svg>