<svg width="32" height="33" fill="none" xmlns="http://www.w3.org/2000/svg"><g clip-path="url('#clip0_945_278')" fill="#fff"><path d="M31.969 9.575c-.075-1.7-.35-2.87-.744-3.883a7.809 7.809 0 0 0-1.85-2.837 7.875 7.875 0 0 0-2.832-1.845C25.523.617 24.36.342 22.66.267c-1.713-.082-2.257-.1-6.602-.1-4.344 0-4.888.018-6.595.093-1.7.075-2.869.35-3.882.744a7.808 7.808 0 0 0-2.838 1.85A7.878 7.878 0 0 0 .9 5.687C.506 6.706.231 7.868.156 9.568c-.081 1.713-.1 2.257-.1 6.602 0 4.344.019 4.888.094 6.595.075 1.7.35 2.869.744 3.882a7.891 7.891 0 0 0 1.85 2.838c.8.812 1.77 1.444 2.832 1.844 1.02.394 2.182.669 3.882.744 1.707.075 2.25.093 6.595.093s4.889-.018 6.595-.093c1.7-.075 2.87-.35 3.882-.744a8.184 8.184 0 0 0 4.682-4.682c.394-1.02.67-2.182.744-3.882.075-1.707.094-2.25.094-6.595s-.006-4.889-.081-6.595ZM29.087 22.64c-.069 1.562-.331 2.406-.55 2.969a5.308 5.308 0 0 1-3.038 3.038c-.563.219-1.413.482-2.97.55-1.688.075-2.194.094-6.463.094-4.27 0-4.782-.019-6.464-.094-1.563-.069-2.407-.331-2.97-.55a4.925 4.925 0 0 1-1.837-1.194A4.975 4.975 0 0 1 3.6 25.615c-.22-.562-.482-1.413-.55-2.969-.076-1.688-.094-2.194-.094-6.464 0-4.27.018-4.782.094-6.464.068-1.562.33-2.406.55-2.969a4.864 4.864 0 0 1 1.2-1.838 4.967 4.967 0 0 1 1.838-1.194c.562-.219 1.413-.481 2.97-.55 1.687-.075 2.193-.094 6.463-.094 4.276 0 4.782.02 6.464.094 1.563.069 2.406.331 2.969.55a4.92 4.92 0 0 1 1.838 1.194 4.975 4.975 0 0 1 1.194 1.838c.219.563.481 1.413.55 2.97.075 1.687.094 2.194.094 6.463 0 4.27-.019 4.77-.094 6.458Z"/><path d="M16.06 7.95a8.222 8.222 0 0 0-8.221 8.22 8.222 8.222 0 0 0 8.22 8.22 8.222 8.222 0 0 0 8.22-8.22 8.222 8.222 0 0 0-8.22-8.22Zm0 13.552a5.333 5.333 0 1 1 .001-10.666 5.333 5.333 0 0 1-.002 10.666ZM26.524 7.624a1.92 1.92 0 1 1-3.839 0 1.92 1.92 0 0 1 3.839 0Z"/></g><defs><clipPath id="clip0_945_278"><path fill="#fff" transform="translate(0 .167)" d="M0 0h32v32H0z"/></clipPath></defs></svg>