<svg width="32" height="33" fill="none" xmlns="http://www.w3.org/2000/svg"><g clip-path="url('#clip0_945_282')"><path d="M28.8.167H3.2a3.21 3.21 0 0 0-3.2 3.2v25.6c0 1.76 1.44 3.2 3.2 3.2h25.6c1.76 0 3.2-1.44 3.2-3.2v-25.6c0-1.76-1.44-3.2-3.2-3.2Zm-19.2 27.2H4.8v-14.4h4.8v14.4Zm-2.4-17.12c-1.6 0-2.88-1.28-2.88-2.88 0-1.6 1.28-2.88 2.88-2.88 1.6 0 2.88 1.28 2.88 2.88 0 1.6-1.28 2.88-2.88 2.88Zm20 17.12h-4.8v-8.48c0-1.28-1.12-2.4-2.4-2.4-1.28 0-2.4 1.12-2.4 2.4v8.48h-4.8v-14.4h4.8v1.92c.8-1.28 2.56-2.24 4-2.24 3.04 0 5.6 2.56 5.6 5.6v9.12Z" fill="#fff"/></g><defs><clipPath id="clip0_945_282"><path fill="#fff" transform="translate(0 .167)" d="M0 0h32v32H0z"/></clipPath></defs></svg>