<svg width="184" height="45" fill="none" xmlns="http://www.w3.org/2000/svg"><g clip-path="url('#clip0_945_252')" fill="#fff"><path d="M78.345 39.998h5.688V38.98h-5.688v-2.494h5.99v-1.034h-7.129v8.554h7.218v-1.034h-6.08v-2.974ZM101.586 42.472l-6.851-7.02H93.68v8.554h1.073v-6.998l6.853 6.998h1.043v-8.554h-1.063v7.02ZM113.494 39.998h5.686V38.98h-5.686v-2.494h5.99v-1.034h-7.129v8.554h7.216v-1.034h-6.077v-2.974ZM136.2 39.566c.347-.399.522-.931.522-1.585 0-.415-.071-.788-.21-1.102a1.922 1.922 0 0 0-.677-.808c-.3-.21-.686-.366-1.149-.47-.453-.1-1.002-.15-1.633-.15h-4.226v8.553h1.073v-3.516h3.153c.125 0 .245 0 .361-.007.086-.002.172-.006.253-.012l2.627 3.535h1.353l-2.831-3.685c.617-.152 1.08-.405 1.382-.755l.002.002Zm-.735-.816c-.106.181-.283.325-.53.428-.264.11-.617.185-1.049.222-.443.037-.996.055-1.645.055H129.9v-2.967h2.365c.645 0 1.198.02 1.639.062.431.04.782.117 1.041.23.245.105.416.247.52.434.108.191.164.45.164.769s-.056.582-.166.767h.002ZM150.767 40.613h3.319v2.203c-.125.035-.27.07-.433.102-.216.046-.459.087-.726.124-.264.037-.549.068-.849.092-.296.023-.602.035-.905.035-.767 0-1.444-.088-2.014-.26-.563-.173-1.037-.414-1.408-.718a2.877 2.877 0 0 1-.827-1.078 3.439 3.439 0 0 1-.273-1.378c0-.532.094-1.016.28-1.44.183-.419.465-.779.832-1.073.372-.296.849-.526 1.417-.689.571-.162 1.255-.244 2.028-.244a6.406 6.406 0 0 1 1.99.304c.286.093.555.202.804.325.247.123.486.257.706.399l.255.162v-1.324l-.102-.043c-.283-.12-.573-.23-.859-.33a8.717 8.717 0 0 0-1.835-.42 9.388 9.388 0 0 0-2.534.063c-.468.08-.911.2-1.317.356-.408.158-.787.36-1.124.602a3.939 3.939 0 0 0-.874.866c-.24.331-.43.707-.561 1.119-.13.411-.198.872-.198 1.37 0 .746.145 1.404.429 1.961a3.925 3.925 0 0 0 1.181 1.39 5.18 5.18 0 0 0 1.762.817c.667.176 1.4.265 2.179.265a12.651 12.651 0 0 0 2.096-.166c.323-.054.639-.124.941-.204.302-.08.606-.175.9-.28l.11-.04v-3.898h-4.392v1.034l.002-.004ZM165.565 35.452h-1.073v8.552h1.073v-8.552ZM179.559 35.452h-1.073l-4.443 8.552h1.188l1.122-2.171h5.337l1.122 2.171H184l-4.443-8.552h.002Zm1.596 5.365h-4.267l2.134-4.113 2.131 4.113h.002ZM92.965 20.247c.766-1.012 1.006-2.32 1.006-3.685 0-1.1-.222-2.05-.665-2.854-.445-.804-1.039-1.678-1.826-2.209-.788-.528-1.437-.86-2.788-1.19-1.072-.261-3.414-.19-4.667-.19H77.6V29.7h4.829v-6.296h1.012l4.949 6.295 5.87-.008-5.417-6.846c1.506-.282 3.035-1.162 4.122-2.597Zm-5.157-1.236c-.747.53-1.843.666-3.788.666H82.43V13.97h1.804c2.183 0 2.928.07 3.636.508.709.438 1.062 1.262 1.062 2.178 0 .915-.374 1.828-1.12 2.356h-.003ZM9.178 10.13l-.607 4.542s1.123-.062 2.262-.062c3.665 0 7.871-.12 7.13 4.907-.308 2.1-1.794 5.523-6.326 5.523l-2.304.004c.428-1.289 2.273-7.466 2.273-7.466l-5.51.066L9.373.166 0 21.814h5.39l-2.557 7.894h9.334c4.525 0 10.757-3.635 10.757-12.093s-8.2-7.485-13.746-7.485ZM51.54 10.097l.911 4.622 5.44.002-.044 14.987 5.196-.006.184-14.974 5.614-.007 1.016-4.624H51.541ZM35.151 21.956h7.38l.95-3.94H35.21l.053-3.636h9.319l-.843-4.23H29.86V29.71H43.74l1.035-4.006h-9.68l.057-3.747ZM159.855 10.15h-5.467v19.554l5.173-.006.294-19.548ZM145.743 10.15h-5.467v11.154l-7.368-11.154h-5.467v19.554l5.171-.006.174-11.404 7.49 11.41 5.173-.006.294-19.548ZM117.29 12.38c-1.435-1.666-3.923-2.5-7.47-2.5-3.547 0-6.051.832-7.518 2.5-1.469 1.665-2.22 4.207-2.257 7.635-.035 3.424.663 5.938 2.1 7.546 1.433 1.608 3.924 2.41 7.467 2.41 3.543 0 6.051-.802 7.521-2.41 1.469-1.608 2.22-4.125 2.255-7.546.034-3.428-.664-5.968-2.098-7.636Zm-2.657 7.653c-.088 3.87-1.839 5.451-5.249 5.451-3.411 0-4.504-1.289-4.584-5.45-.057-3.048.933-5.824 5.135-5.824 3.026 0 4.804 1.16 4.698 5.823ZM176.827 25.11c-2.996 0-4.429-1.618-4.429-5.09 0-1.996.59-5.344 4.545-5.344h5.688l.83-4.596h-7.239c-1.308 0-3.822.274-5.957 2.1-1.434 1.227-3.147 3.586-3.147 7.838 0 7.19 4.655 9.752 9.013 9.752h7.436l-.855-4.662h-5.885v.002Z"/></g><defs><clipPath id="clip0_945_252"><path fill="#fff" transform="translate(0 .167)" d="M0 0h184v44H0z"/></clipPath></defs></svg>