<svg width="65" height="65" fill="none" xmlns="http://www.w3.org/2000/svg"><g clip-path="url('#clip0_945_216')" fill="#EDF3FF"><path d="m60.828 36.898-4.745-1.573v-2.233a6.517 6.517 0 0 0 2.52-3.612h.261a2.722 2.722 0 0 0 2.72-2.72 2.71 2.71 0 0 0-1.376-2.348v-2.12a6.477 6.477 0 0 0-1.875-4.56V3.167c0-1.654-1.346-3-3-3h-28c-1.654 0-3 1.346-3 3v2h-14c-1.654 0-3 1.346-3 3v8.909a6.657 6.657 0 0 0-2.75 5.383v2.2a2.762 2.762 0 0 0-1.417 2.404 2.774 2.774 0 0 0 2.771 2.77h.293a6.679 6.679 0 0 0 2.603 3.738v2.334l-4.918 1.633a5.247 5.247 0 0 0-3.582 4.979v14.65a1 1 0 0 0 1 1h18.491v5a1 1 0 0 0 1 1h24.51a1 1 0 0 0 1-1v-6.19h5.99l.01.002.01-.002h6.852l.012.002.012-.002h4.113a1 1 0 0 0 1-1v-14.21a5.137 5.137 0 0 0-3.505-4.87Zm-11.654.338 1.596 2.392-1.51 1.51-1.387-3.47 1.301-.432Zm4.173 15.725-1.014 1.352-1.014-1.352 1.014-7.098 1.014 7.098Zm-.258-10.356h-1.512l-.318-.638.873-.873c.136.026.265.026.401 0l.873.873-.317.638Zm2.316-1.468-1.51-1.51 1.596-2.392 1.3.43-1.386 3.472Zm-1.322-5.393-1.75 2.622-1.75-2.622v-1.695c.564.157 1.15.243 1.75.243.607 0 1.192-.09 1.75-.246v1.698Zm-1.75-3.452a4.49 4.49 0 0 1-4.5-4.5v-1.67c3.216.16 5.025-.848 5.943-1.683.623.486 1.61 1.053 3.057 1.413v1.94c0 2.48-2.019 4.5-4.5 4.5Zm-6.53-4.813a.72.72 0 0 1 0-1.438h.03v1.438h-.03Zm12.405-5.187v1.75h-.289c-2.48-.44-3.36-1.594-3.387-1.63a1.002 1.002 0 0 0-.876-.421 1.02 1.02 0 0 0-.832.522c-.048.086-1.239 2.113-5.866 1.537a1.032 1.032 0 0 0-.124-.008h-.375v-1.75c0-2.481 2.02-4.5 4.5-4.5h2.75a4.505 4.505 0 0 1 4.5 4.5Zm.656 5.187h-.03V26.04h.03a.72.72 0 0 1 0 1.438ZM26.334 3.167c0-.551.448-1 1-1h28c.55 0 1 .449 1 1V16.35a6.45 6.45 0 0 0-2.626-.56h-2.75a6.508 6.508 0 0 0-6.5 6.5v2.12a2.71 2.71 0 0 0-1.375 2.35 2.722 2.722 0 0 0 2.72 2.719h.258a6.504 6.504 0 0 0 1.676 2.913c.264.262.55.493.846.704v2.229l-4.75 1.575a5.124 5.124 0 0 0-3.464 4.41l-3.227-1.074v-2.623a7.14 7.14 0 0 0 2.833-4.081h.38a2.919 2.919 0 0 0 2.914-2.915 2.903 2.903 0 0 0-1.532-2.55V25.64a7.135 7.135 0 0 0-7.127-7.127h-3.063c-.072 0-.142.009-.214.01V8.168c0-1.654-1.346-3-3-3h-2v-2Zm-.53 28.364a.917.917 0 0 1-.916-.915c0-.504.411-.915.915-.915h.15v1.83h-.15Zm5.743-11.02h3.063c2.827 0 5.127 2.3 5.127 5.127v2.064h-.446c-2.824-.498-3.825-1.82-3.857-1.865a1.015 1.015 0 0 0-.878-.422 1.02 1.02 0 0 0-.83.525c-.055.1-1.398 2.426-6.65 1.77a1.032 1.032 0 0 0-.124-.008h-.532v-2.064a5.132 5.132 0 0 1 5.127-5.127Zm8.66 9.19h.147a.916.916 0 0 1 0 1.83h-.148v-1.83Zm-12.255.08c3.707.214 5.74-.966 6.73-1.9.69.554 1.818 1.226 3.524 1.635v2.249c0 2.827-2.3 5.127-5.127 5.127a5.113 5.113 0 0 1-3.625-1.497 5.122 5.122 0 0 1-1.5-3.63v-1.983h-.002Zm5.127 9.11c.718 0 1.41-.108 2.063-.306v2.068l-2.063 3.095-2.063-3.095v-2.064c.661.2 1.354.303 2.063.303Zm-3.473 3.255 1.88 2.819-1.872 1.87-1.656-4.141 1.648-.548Zm4.722 17.689-1.25 1.666-1.25-1.666 1.25-8.746 1.25 8.746Zm-.337-11.454h-1.825l-.422-.847 1.07-1.07c.177.045.353.045.53 0l1.07 1.07-.423.847Zm.681-3.416 1.88-2.82 1.646.549-1.656 4.14-1.87-1.87ZM9.333 8.167c0-.551.45-1 1-1h18c.551 0 1 .449 1 1v10.7c-2.849.934-4.914 3.614-4.914 6.77v2.43a2.907 2.907 0 0 0-1.532 2.549 2.919 2.919 0 0 0 2.915 2.915h.378a7.124 7.124 0 0 0 1.86 3.278c.303.302.631.568.975.807v2.618l-4.099 1.364a5.242 5.242 0 0 0-3.508-4.061L16.5 35.904v-2.33c.311-.22.61-.461.885-.735a6.663 6.663 0 0 0 1.72-3.006h.29a2.774 2.774 0 0 0 2.771-2.771 2.764 2.764 0 0 0-1.417-2.403v-2.201a6.675 6.675 0 0 0-6.667-6.667h-2.833a6.64 6.64 0 0 0-1.917.284V8.167h.002Zm1.761 32.158L9.49 41.929l-1.459-3.65 1.392-.463 1.671 2.509Zm2.65 13.74L12.665 55.5l-1.077-1.436 1.077-7.535 1.077 7.535Zm-.28-10.648H11.87l-.345-.693.882-.882c.083.022.17.035.257.035h.001c.09 0 .177-.014.262-.037l.884.884-.346.693Zm2.38-1.488-1.608-1.606 1.674-2.506 1.391.463-1.458 3.649Zm4.322-14.866a.772.772 0 0 1-.77.77h-.063v-1.541h.062c.426 0 .771.346.771.77Zm-8.916-9.271h2.833a4.673 4.673 0 0 1 4.667 4.667v1.833h-.417a.852.852 0 0 0-.124.008c-4.792.597-6.025-1.51-6.065-1.58a1.002 1.002 0 0 0-.813-.542 1.013 1.013 0 0 0-.896.409c-.038.052-.95 1.25-3.52 1.706h-.332V22.46a4.672 4.672 0 0 1 4.667-4.668Zm-6.084 9.27c0-.424.346-.77.771-.77H6v1.542h-.062a.772.772 0 0 1-.77-.771ZM8 26.103c1.515-.372 2.54-.966 3.181-1.47.938.86 2.808 1.914 6.152 1.74v1.754a4.663 4.663 0 0 1-1.362 3.3A4.672 4.672 0 0 1 8 28.126v-2.023Zm4.666 8.69c.63 0 1.243-.091 1.833-.26v1.797l-1.835 2.746-1.832-2.75V34.53a6.657 6.657 0 0 0 1.834.262ZM2.333 42.517c0-1.4.891-2.637 2.215-3.081l1.581-.525 2.066 5.169a.999.999 0 0 0 1.636.336l.2-.2.323.648a.992.992 0 0 0 .466.448l-1.269 8.882a1 1 0 0 0 .19.742l.926 1.23H6.583V45.835a1 1 0 0 0-2 0v10.333h-2.25v-13.65Zm17.491 4.81v8.84h-5.158l.925-1.233a1 1 0 0 0 .19-.742l-1.269-8.882a.992.992 0 0 0 .466-.448l.323-.648.2.2a1 1 0 0 0 1.636-.336l2.066-5.168 1.574.524a3.24 3.24 0 0 1 2.21 2.867 5.586 5.586 0 0 0-3.163 5.027Zm2 0c0-1.546.988-2.916 2.456-3.408l1.778-.592 2.262 5.659a.999.999 0 0 0 1.636.336l.297-.297.4.8c.11.222.298.382.52.472l-1.38 9.664a1 1 0 0 0 .19.742l1.096 1.464H26.42V50.913a1 1 0 0 0-2 0v11.254h-2.595v-14.84Zm22.51 14.84h-2.596V50.913a1 1 0 0 0-2 0v11.254H35.08l1.098-1.463a1 1 0 0 0 .19-.742l-1.38-9.664c.221-.09.41-.25.52-.471l.4-.801.296.297a1 1 0 0 0 1.636-.336l2.262-5.66 1.776.592a3.594 3.594 0 0 1 2.458 3.41v14.838h-.002ZM42.508 42.02l-.176-.058v-.196c0-1.346.86-2.541 2.134-2.971l1.505-.5 1.995 4.992a.999.999 0 0 0 1.636.336l.166-.166.295.592a.996.996 0 0 0 .446.439l-1.228 8.599a1 1 0 0 0 .19.742l.861 1.147h-4v-7.65a5.591 5.591 0 0 0-3.824-5.306Zm19.824 12.956h-2.125v-9.998a1 1 0 0 0-2 0v9.998h-3.873l.861-1.147a1 1 0 0 0 .19-.742l-1.228-8.6a.987.987 0 0 0 .446-.438l.295-.592.166.166a1 1 0 0 0 1.636-.336l1.995-4.99 1.5.497a3.138 3.138 0 0 1 2.137 2.972v13.21Z"/><path d="M52.333 4.167h2v2h-2v-2ZM52.333 8.167h2v2h-2v-2ZM52.333 12.167h2v2h-2v-2ZM48.333 4.167h2v2h-2v-2ZM48.333 8.167h2v2h-2v-2ZM48.333 12.167h2v2h-2v-2ZM44.333 4.167h2v2h-2v-2ZM44.333 8.167h2v2h-2v-2ZM44.333 12.167h2v2h-2v-2ZM40.333 4.167h2v2h-2v-2ZM40.333 8.167h2v2h-2v-2ZM40.333 12.167h2v2h-2v-2ZM36.333 4.167h2v2h-2v-2ZM36.333 8.167h2v2h-2v-2ZM36.333 12.167h2v2h-2v-2ZM32.333 4.167h2v2h-2v-2ZM32.333 8.167h2v2h-2v-2ZM32.333 12.167h2v2h-2v-2ZM24.333 8.167h2v2h-2v-2ZM24.333 12.167h2v2h-2v-2ZM24.333 16.167h2v2h-2v-2ZM20.333 8.167h2v2h-2v-2ZM20.333 12.167h2v2h-2v-2ZM20.333 16.167h2v2h-2v-2ZM16.333 8.167h2v2h-2v-2ZM16.333 12.167h2v2h-2v-2ZM12.333 8.167h2v2h-2v-2ZM12.333 12.167h2v2h-2v-2ZM40.333 16.167h2v2h-2v-2ZM36.333 16.167h2v2h-2v-2ZM32.333 16.167h2v2h-2v-2Z"/></g><defs><clipPath id="clip0_945_216"><path fill="#fff" transform="translate(.333 .167)" d="M0 0h64v64H0z"/></clipPath></defs></svg>