<svg width="46" height="33" fill="none" xmlns="http://www.w3.org/2000/svg"><g clip-path="url('#clip0_945_286')"><path fill-rule="evenodd" clip-rule="evenodd" d="M40.998 1.145a5.745 5.745 0 0 1 4.054 4.029c.986 3.576.948 11.03.948 11.03s0 7.416-.947 10.993a5.745 5.745 0 0 1-4.055 4.028c-3.6.941-17.998.941-17.998.941s-14.361 0-17.998-.978a5.746 5.746 0 0 1-4.055-4.029C0 23.621 0 16.167 0 16.167S0 8.75.947 5.173c.53-1.958 2.122-3.54 4.054-4.066C8.601.167 23 .167 23 .167s14.398 0 17.998.978ZM30 16.166l-12 7v-14l12 7Z" fill="#fff"/></g><defs><clipPath id="clip0_945_286"><path fill="#fff" transform="translate(0 .167)" d="M0 0h46v32H0z"/></clipPath></defs></svg>